<?xml version="1.0" encoding="UTF-8" standalone="no"?>
<svg
   xmlns:dc="http://purl.org/dc/elements/1.1/"
   xmlns:cc="http://creativecommons.org/ns#"
   xmlns:rdf="http://www.w3.org/1999/02/22-rdf-syntax-ns#"
   xmlns:svg="http://www.w3.org/2000/svg"
   xmlns="http://www.w3.org/2000/svg"
   id="MSR-1"
   width="38mm"
   height="38mm"
   viewBox="0 0 250 250"
   version="1.1">
  <metadata
     id="metadata80">
    <rdf:RDF>
      <cc:Work
         rdf:about="">
        <dc:format>image/svg+xml</dc:format>
        <dc:type
           rdf:resource="http://purl.org/dc/dcmitype/StillImage" />
      </cc:Work>
    </rdf:RDF>
  </metadata>
  <defs
     id="defs78" />
  <circle
     class="Rang"
     layer="0"
     id="Rang0"
     cx="125"
     cy="125"
     r="123"
     fill="none"
     stroke="#ffffff"
     stroke-width="2" />
  <g
     id="RangText1"
     layer="1"
     font-size="36px"
     font-style="normal"
     font-family="'Times New Roman'"
     fill="#ffffff"
     stroke="none"
     font-weight="normal"
     in="0"
     rad="111.5"
     cut="-156"
     len="307">
    <g
       aria-label="C"
       transform="rotate(-146.85,76.011412,82.952861)"
       id="text5">
      <path
         d="m 21.673828,-24.380859 0.544922,8.103515 h -0.544922 q -1.089844,-3.638672 -3.111328,-5.238281 -2.021484,-1.599609 -4.851562,-1.599609 -2.373047,0 -4.289063,1.21289 -1.9160156,1.195313 -3.0234375,3.832032 -1.0898438,2.636718 -1.0898438,6.55664 0,3.2343751 1.0371094,5.607422 1.0371094,2.3730469 3.1113282,3.6386719 2.0917967,1.265625 4.7636717,1.265625 2.320313,0 4.095703,-0.984375 1.775391,-1.0019532 3.902344,-3.9550781 l 0.544922,0.3515625 q -1.792969,3.1816406 -4.183594,4.65820307 -2.390625,1.4765625 -5.677734,1.4765625 -5.9238284,0 -9.1757815,-4.39453127 -2.4257813,-3.2695312 -2.4257813,-7.6992186 0,-3.56836 1.5996094,-6.556641 Q 4.5,-21.09375 7.2949219,-22.728516 q 2.8125001,-1.652343 6.1347661,-1.652343 2.583984,0 5.097656,1.265625 0.738281,0.386718 1.054687,0.386718 0.47461,0 0.826172,-0.333984 0.457031,-0.474609 0.650391,-1.318359 z"
         id="path82" />
    </g>
    <g
       aria-label="L"
       transform="rotate(-127.85,80.309416,71.954854)"
       id="text9">
      <path
         d="M 20.636719,-6.5917969 21.216797,-6.46875 19.177734,0 H 0.72070312 V -0.65039062 H 1.6171875 q 1.5117188,0 2.1621094,-0.98437498 0.3691406,-0.5625 0.3691406,-2.6015625 V -19.617187 q 0,-2.232422 -0.4921875,-2.794922 -0.6855469,-0.773438 -2.0390625,-0.773438 H 0.72070312 v -0.65039 H 11.513672 v 0.65039 q -1.8984376,-0.01758 -2.6718751,0.351563 -0.7558594,0.36914 -1.0371094,0.93164 -0.28125,0.5625 -0.28125,2.689453 v 14.9765629 q 0,1.4589843 0.28125,2.0039062 0.2109375,0.3691407 0.6503906,0.5449219 0.4394532,0.1757813 2.7421879,0.1757813 H 12.9375 q 2.742188,0 3.849609,-0.4042969 1.107422,-0.4042969 2.021485,-1.4238282 0.914062,-1.0371093 1.828125,-3.2519531 z"
         id="path85" />
    </g>
    <g
       aria-label="A"
       transform="rotate(-108.09,87.364287,59.071738)"
       id="text13">
      <path
         d="M 16.470703,-7.9804687 H 7.2421875 L 5.625,-4.21875 q -0.5976563,1.3886719 -0.5976563,2.0742187 0,0.5449219 0.5097657,0.9667969 0.5273437,0.4042969 2.25,0.52734378 V 0 H 0.28125 V -0.65039062 Q 1.7753906,-0.9140625 2.2148438,-1.3359375 3.1113281,-2.1796875 4.2011719,-4.7636719 L 12.585938,-24.380859 h 0.615234 l 8.296875,19.8281246 q 1.001953,2.390625 1.810547,3.1113282 0.826172,0.70312495 2.285156,0.79101558 V 0 h -9.404297 v -0.65039062 q 1.423828,-0.0703125 1.916016,-0.47460938 0.509765,-0.4042969 0.509765,-0.984375 0,-0.7734375 -0.703125,-2.4433594 z M 15.978516,-9.28125 11.935547,-18.914062 7.7871094,-9.28125 Z"
         id="path88" />
    </g>
    <g
       aria-label="I"
       transform="rotate(-92.15,89.455187,42.821312)"
       id="text17">
      <path
         d="M 11.109375,-0.65039062 V 0 H 0.89648438 V -0.65039062 H 1.7402344 q 1.4765625,0 2.1445312,-0.86132808 0.421875,-0.5625001 0.421875,-2.7070313 v -15.398437 q 0,-1.810547 -0.2285156,-2.390625 -0.1757812,-0.439454 -0.7207031,-0.75586 -0.7734375,-0.421875 -1.6171875,-0.421875 H 0.89648438 v -0.65039 H 11.109375 v 0.65039 h -0.861328 q -1.4589845,0 -2.1269532,0.861328 -0.4394532,0.5625 -0.4394532,2.707032 V -4.21875 q 0,1.8105469 0.2285156,2.390625 0.1757813,0.4394531 0.7382813,0.7558594 0.7558594,0.42187498 1.5996095,0.42187498 z"
         id="path91" />
    </g>
    <g
       aria-label="M"
       transform="rotate(-73.89,104.55043,26.926935)"
       id="text21">
      <path
         d="M 14.730469,0 5.5195312,-20.056641 v 15.9257816 q 0,2.1972657 0.4746094,2.7421875 0.6503906,0.73828128 2.0566407,0.73828128 h 0.84375 V 0 H 0.59765625 V -0.65039062 H 1.4414062 q 1.5117188,0 2.1445313,-0.91406248 0.3867188,-0.5625 0.3867188,-2.5664063 V -19.705078 q 0,-1.582031 -0.3515625,-2.285156 Q 3.375,-22.5 2.7070313,-22.833984 2.0566406,-23.185547 0.59765625,-23.185547 v -0.65039 H 7.3476562 l 8.6484378,18.6503901 8.507812,-18.6503901 h 6.75 v 0.65039 h -0.826172 q -1.529297,0 -2.162109,0.914063 -0.386719,0.5625 -0.386719,2.566406 v 15.5742186 q 0,2.1972657 0.492188,2.7421875 0.65039,0.73828128 2.05664,0.73828128 h 0.826172 V 0 h -10.125 v -0.65039062 h 0.84375 q 1.529297,0 2.144531,-0.91406248 0.386719,-0.5625 0.386719,-2.5664063 V -20.056641 L 15.310547,0 Z"
         id="path94" />
    </g>
    <g
       aria-label="S"
       transform="rotate(-52.56,118.29862,-16.522487)"
       id="text25">
      <path
         d="m 16.505859,-24.380859 v 8.24414 h -0.65039 q -0.316406,-2.373047 -1.142578,-3.779297 -0.808594,-1.40625 -2.320313,-2.232421 -1.511719,-0.826172 -3.1289061,-0.826172 -1.828125,0 -3.0234375,1.125 -1.1953125,1.107422 -1.1953125,2.53125 0,1.089843 0.7558593,1.986328 1.0898438,1.318359 5.1855468,3.515625 3.339844,1.792968 4.552735,2.759765 1.230468,0.949219 1.880859,2.2500004 0.667969,1.3007812 0.667969,2.7246094 0,2.7070312 -2.109375,4.6757812 -2.091797,1.95117187 -5.396485,1.95117187 -1.0371091,0 -1.9511716,-0.15820312 -0.5449219,-0.0878906 -2.2675782,-0.6328125 -1.7050781,-0.5625 -2.1621093,-0.5625 -0.4394531,0 -0.703125,0.26367188 Q 3.2519531,-0.28125 3.1289063,0.54492187 H 2.4785156 V -7.6289062 h 0.6503907 q 0.4570312,2.5664062 1.2304687,3.8496093 0.7734375,1.265625 2.3554687,2.109375 1.5996094,0.84375002 3.4980473,0.84375002 2.197265,0 3.46289,-1.16015622 1.283203,-1.1601563 1.283203,-2.7421875 0,-0.8789063 -0.492187,-1.7753906 -0.474609,-0.8964844 -1.494141,-1.6699219 -0.685547,-0.5273438 -3.7441404,-2.2324219 -3.0585937,-1.722656 -4.359375,-2.742188 -1.2832031,-1.019531 -1.9511718,-2.25 Q 2.25,-16.628906 2.25,-18.105469 q 0,-2.566406 1.96875,-4.412109 1.96875,-1.863281 5.0097656,-1.863281 1.8984374,0 4.0253904,0.93164 0.984375,0.439453 1.388672,0.439453 0.457031,0 0.738281,-0.263671 0.298829,-0.28125 0.47461,-1.107422 z"
         id="path97" />
    </g>
    <g
       transform="rotate(-38.91,135.91145,-68.310593)"
       id="text29" />
    <g
       aria-label="D"
       transform="rotate(-22.97,193.57035,-175.9432)"
       id="text33">
      <path
         d="M 0.61523437,0 V -0.65039062 H 1.5117187 q 1.5117188,0 2.1445313,-0.96679688 0.3867187,-0.5800781 0.3867187,-2.6015625 v -15.398437 q 0,-2.232422 -0.4921874,-2.794922 -0.6855469,-0.773438 -2.0390626,-0.773438 H 0.61523437 v -0.65039 H 10.318359 q 5.34375,0 8.121094,1.21289 2.794922,1.212891 4.482422,4.042969 1.705078,2.830078 1.705078,6.539062 0,4.9746098 -3.023437,8.3144535 Q 18.210937,0 11.267578,0 Z M 7.4179687,-1.7226562 q 2.2324219,0.4921875 3.7441403,0.4921875 4.078125,0 6.767578,-2.8652344 2.689454,-2.8652344 2.689454,-7.7695309 0,-4.939453 -2.689454,-7.78711 Q 15.240234,-22.5 11.021484,-22.5 q -1.5820309,0 -3.6035153,0.509766 z"
         id="path101" />
    </g>
    <g
       aria-label="O"
       transform="rotate(-1.67,1805.9197,-3742.6973)"
       id="text37">
      <path
         d="m 13.166016,-24.380859 q 4.640625,0 8.033203,3.533203 3.410156,3.515625 3.410156,8.789062 0,5.4316409 -3.427734,9.0175784 -3.427735,3.58593747 -8.296875,3.58593747 -4.9218754,0 -8.2792973,-3.49804687 -3.3398437,-3.4980469 -3.3398437,-9.052734 0,-5.677735 3.8671875,-9.263672 3.3574219,-3.111328 8.0332035,-3.111328 z m -0.333985,1.283203 q -3.1992185,0 -5.1328123,2.373047 -2.4082031,2.953125 -2.4082031,8.648437 0,5.8359376 2.4960938,8.982422 1.9160156,2.390625 5.0624996,2.390625 3.357422,0 5.53711,-2.6191406 2.197265,-2.6191406 2.197265,-8.2617184 0,-6.117188 -2.408203,-9.123047 -1.933594,-2.390625 -5.34375,-2.390625 z"
         id="path104" />
    </g>
    <g
       aria-label="N"
       transform="rotate(19.63,-77.310296,423.41227)"
       id="text41">
      <path
         d="M -0.47460938,-23.835937 H 5.9941406 L 20.566406,-5.9589844 V -19.705078 q 0,-2.197266 -0.492187,-2.742188 -0.650391,-0.738281 -2.056641,-0.738281 h -0.826172 v -0.65039 h 8.296875 v 0.65039 h -0.84375 q -1.511719,0 -2.144531,0.914063 -0.386719,0.5625 -0.386719,2.566406 V 0.38671875 H 21.480469 L 5.765625,-18.808594 v 14.6777346 q 0,2.1972657 0.4746094,2.7421875 0.6679687,0.73828128 2.0566406,0.73828128 h 0.84375 V 0 H 0.84375 v -0.65039062 h 0.8261719 q 1.5292969,0 2.1621094,-0.91406248 0.3867187,-0.5625 0.3867187,-2.5664063 V -20.707031 Q 3.1816406,-21.919922 2.6367188,-22.306641 2.109375,-22.693359 1.0722656,-23.027344 0.5625,-23.185547 -0.47460938,-23.185547 Z"
         id="path107" />
    </g>
    <g
       aria-label="E"
       transform="rotate(39.39,-2.2738442,259.10439)"
       id="text45">
      <path
         d="m 7.5234375,-22.535156 v 9.421875 h 5.2382815 q 2.039062,0 2.724609,-0.615235 0.914063,-0.808593 1.019531,-2.847656 h 0.650391 v 8.2968751 h -0.650391 q -0.246093,-1.7402341 -0.492187,-2.2324221 -0.316406,-0.615234 -1.037109,-0.966797 -0.720704,-0.351562 -2.214844,-0.351562 H 7.5234375 v 7.8574217 q 0,1.5820313 0.140625,1.9335938 0.140625,0.3339844 0.4921875,0.5449219 0.3515625,0.1933594 1.3359375,0.1933594 h 4.0429685 q 2.021485,0 2.935547,-0.28125 0.914063,-0.28125 1.757813,-1.1074219 1.089843,-1.0898438 2.232421,-3.2871094 h 0.703125 L 19.107422,0 H 0.73828125 V -0.65039062 H 1.5820312 q 0.8437501,0 1.5996094,-0.40429688 0.5625,-0.28125 0.7558594,-0.84375 0.2109375,-0.5625 0.2109375,-2.3027344 V -19.6875 q 0,-2.267578 -0.4570312,-2.794922 -0.6328125,-0.703125 -2.1093751,-0.703125 H 0.73828125 v -0.65039 H 19.107422 l 0.263672,5.220703 h -0.685547 q -0.369141,-1.88086 -0.826172,-2.583985 -0.439453,-0.703125 -1.318359,-1.072265 -0.703125,-0.263672 -2.478516,-0.263672 z"
         id="path110" />
    </g>
    <g
       transform="rotate(53.8,16.478719,217.41305)"
       id="text49" />
    <g
       aria-label="R"
       transform="rotate(68.98,31.782047,181.99905)"
       id="text53">
      <path
         d="M 24.328125,0 H 17.964844 L 9.8964844,-11.144531 Q 9,-11.109375 8.4375,-11.109375 q -0.2285156,0 -0.4921875,0 -0.2636719,-0.01758 -0.5449219,-0.03516 v 6.925781 q 0,2.25 0.4921875,2.7949219 0.6679688,0.77343748 2.0039063,0.77343748 H 10.828125 V 0 H 0.61523437 V -0.65039062 H 1.5117187 q 1.5117188,0 2.1621094,-0.98437498 0.3691406,-0.5449219 0.3691406,-2.5839844 v -15.398437 q 0,-2.25 -0.4921874,-2.794922 -0.6855469,-0.773438 -2.0390626,-0.773438 H 0.61523437 v -0.65039 H 9.2988281 q 3.7968749,0 5.5898439,0.5625 1.810547,0.544921 3.058594,2.039062 1.265625,1.476563 1.265625,3.533203 0,2.197266 -1.441407,3.814453 -1.423828,1.617188 -4.429687,2.285156 l 4.921875,6.8378911 q 1.6875,2.3554688 2.90039,3.1289063 1.212891,0.77343747 3.164063,0.98437498 z M 7.4003906,-12.251953 q 0.3339844,0 0.5800781,0.01758 0.2460938,0 0.4042969,0 3.4101564,0 5.1328124,-1.476563 1.740235,-1.476562 1.740235,-3.761718 0,-2.232422 -1.40625,-3.621094 Q 12.462891,-22.5 10.160156,-22.5 q -1.019531,0 -2.7597654,0.333984 z"
         id="path114" />
    </g>
    <g
       aria-label="I"
       transform="rotate(84.15,37.948106,166.04447)"
       id="text57">
      <path
         d="M 11.109375,-0.65039062 V 0 H 0.89648438 V -0.65039062 H 1.7402344 q 1.4765625,0 2.1445312,-0.86132808 0.421875,-0.5625001 0.421875,-2.7070313 v -15.398437 q 0,-1.810547 -0.2285156,-2.390625 -0.1757812,-0.439454 -0.7207031,-0.75586 -0.7734375,-0.421875 -1.6171875,-0.421875 H 0.89648438 v -0.65039 H 11.109375 v 0.65039 h -0.861328 q -1.4589845,0 -2.1269532,0.861328 -0.4394532,0.5625 -0.4394532,2.707032 V -4.21875 q 0,1.8105469 0.2285156,2.390625 0.1757813,0.4394531 0.7382813,0.7558594 0.7558594,0.42187498 1.5996095,0.42187498 z"
         id="path117" />
    </g>
    <g
       aria-label="G"
       transform="rotate(100.09,47.789336,146.60565)"
       id="text61">
      <path
         d="m 22.095703,-24.380859 0.615234,7.523437 h -0.615234 q -0.931641,-2.8125 -2.408203,-4.236328 -2.126953,-2.056641 -5.466797,-2.056641 -4.5527342,0 -6.9257811,3.603516 -1.9863282,3.041016 -1.9863282,7.242187 0,3.4101567 1.3183594,6.2226568 1.3183594,2.8124999 3.4453129,4.1308593 2.144531,1.30078128 4.394531,1.30078128 1.318359,0 2.548828,-0.33398438 1.230469,-0.3339844 2.373047,-0.984375 v -6.890625 q 0,-1.792969 -0.28125,-2.337891 -0.263672,-0.5625 -0.84375,-0.84375 -0.5625,-0.298828 -2.003906,-0.298828 v -0.667969 h 9.228515 v 0.667969 h -0.439453 q -1.371094,0 -1.880859,0.914063 -0.351563,0.65039 -0.351563,2.566406 v 7.2949219 q -2.021484,1.08984372 -3.990234,1.59960935 -1.96875,0.50976562 -4.376953,0.50976562 -6.9082034,0 -10.4941409,-4.42968747 -2.6894531,-3.3222656 -2.6894531,-7.6640624 0,-3.146485 1.5117188,-6.029297 1.7929687,-3.427734 4.9218749,-5.273437 2.6191403,-1.529297 6.1875003,-1.529297 1.300781,0 2.355468,0.210937 1.072266,0.210938 3.023438,0.931641 0.984375,0.36914 1.318359,0.36914 0.333985,0 0.5625,-0.298828 0.246094,-0.316406 0.298828,-1.21289 z"
         id="path120" />
    </g>
    <g
       aria-label="H"
       transform="rotate(121.39,54.789649,131.1236)"
       id="text65">
      <path
         d="M 7.4003906,-12.779297 H 18.474609 v -6.820312 q 0,-1.828125 -0.228515,-2.408203 -0.175782,-0.439454 -0.738282,-0.75586 -0.755859,-0.421875 -1.599609,-0.421875 h -0.84375 v -0.65039 h 10.195313 v 0.65039 h -0.84375 q -0.84375,0 -1.59961,0.404297 -0.5625,0.28125 -0.773437,0.861328 -0.19336,0.5625 -0.19336,2.320313 V -4.21875 q 0,1.8105469 0.228516,2.390625 0.175781,0.4394531 0.720703,0.7558594 0.773438,0.42187498 1.617188,0.42187498 h 0.84375 V 0 H 15.064453 v -0.65039062 h 0.84375 q 1.458984,0 2.126953,-0.86132808 0.439453,-0.5625001 0.439453,-2.7070313 v -7.259766 H 7.4003906 v 7.259766 q 0,1.8105469 0.2285156,2.390625 0.1757813,0.4394531 0.7382813,0.7558594 0.7558594,0.42187498 1.5996094,0.42187498 H 10.828125 V 0 H 0.61523437 V -0.65039062 H 1.4589844 q 1.4765625,0 2.1445312,-0.86132808 0.421875,-0.5625001 0.421875,-2.7070313 v -15.380859 q 0,-1.828125 -0.2285156,-2.408203 -0.1757812,-0.439454 -0.7207031,-0.75586 -0.7734375,-0.421875 -1.6171875,-0.421875 H 0.61523437 v -0.65039 H 10.828125 v 0.65039 H 9.9667969 q -0.84375,0 -1.5996094,0.404297 -0.5449219,0.28125 -0.7558594,0.861328 -0.2109375,0.5625 -0.2109375,2.320313 z"
         id="path123" />
    </g>
    <g
       aria-label="T"
       transform="rotate(141.15,59.122772,119.95044)"
       id="text69">
      <path
         d="m 20.830078,-23.835937 0.263672,5.589843 h -0.667969 q -0.193359,-1.476562 -0.527344,-2.109375 -0.544921,-1.019531 -1.458984,-1.49414 -0.896484,-0.492188 -2.373047,-0.492188 h -3.357422 v 18.2109376 q 0,2.1972657 0.47461,2.7421875 0.667969,0.73828128 2.05664,0.73828128 h 0.826172 V 0 H 5.9589844 v -0.65039062 h 0.84375 q 1.5117187,0 2.1445312,-0.91406248 0.3867188,-0.5625 0.3867188,-2.5664063 V -22.341797 H 6.46875 q -1.6699219,0 -2.3730469,0.246094 -0.9140625,0.333984 -1.5644531,1.283203 -0.6503906,0.949219 -0.7734375,2.566406 H 1.0898437 l 0.28125,-5.589843 z"
         id="path126" />
    </g>
  </g>
  <g
     class="Img_l"
     layer="2"
     id="Img2"
     x="136"
     y="126"
     s="35.5"
     al="0"
     transform="matrix(0.35,0,0,0.35,92.25,82.25)">
    <path
       fill="#ffffff"
       fill-rule="nonzero"
       d="M 86.76,8.46 C 86.28,8.63 85.45,8.98 84.9,9.26 84.21,9.61 72.04,21.63 42.48,51.1 19.69,73.85 0.71,92.89 0.34,93.43 c -0.96,1.36 -1.46,3.43 -1.29,5.24 0.31,3.27 2.45,5.41 5.96,5.91 0.8,0.11 4.29,0.22 7.76,0.22 h 6.26 v 37.34 c 0,41.49 -0.09,38.65 1.49,41.83 1.02,2.1 3.12,4.26 4.99,5.22 2.58,1.29 3.01,1.33 12.63,1.33 h 8.77 l -1.05,-2.01 c -4.16,-7.98 -7.18,-18.28 -8.33,-28.53 -0.41,-3.79 -0.35,-13.35 0.13,-17.23 1.88,-15.46 7.05,-28.27 16.18,-40.13 2.4,-3.12 9.25,-9.99 12.31,-12.35 6.67,-5.15 13.04,-8.59 20.61,-11.1 14.48,-4.82 29.9,-4.43 44.28,1.13 2.96,1.14 8.66,4.02 11.23,5.65 7,4.45 13.11,9.97 18.28,16.54 l 1.87,2.35 6,-0.11 c 6.68,-0.11 7.53,-0.24 9.23,-1.52 2.49,-1.9 2.86,-6.33 0.81,-9.56 C 178.11,93.09 159.09,74 136.21,51.21 89.14,4.31 93.56,8.41 89.64,8.26 88.35,8.19 87.33,8.28 86.76,8.46 Z m 17.45,74.88 c -5.11,0.41 -9.69,1.22 -14.4,2.59 -10.32,2.99 -19.91,8.64 -27.57,16.23 -10.16,10.05 -16.31,22.53 -18.15,36.88 -0.39,2.97 -0.39,11.17 0,14.18 2.23,17.38 10.93,32.28 25.05,42.84 15.66,11.71 36.12,15.79 55.42,11.02 11.58,-2.86 21.4,-8.29 30.21,-16.78 l 2.44,-2.36 40.46,25.18 c 22.25,13.85 40.86,25.47 41.36,25.82 1.2,0.85 3.31,1.53 4.75,1.53 1.84,0 3.89,-0.76 5.17,-1.92 1.55,-1.4 2.03,-2.42 2.03,-4.3 0,-1.79 -0.43,-2.81 -1.77,-4.08 -0.87,-0.83 -3.48,-2.2 -3.9,-2.05 -0.13,0.05 -0.37,0 -0.54,-0.13 -0.24,-0.15 -0.2,-0.17 0.13,-0.08 0.34,0.1 0.34,0.06 -0.11,-0.31 -0.31,-0.24 -0.64,-0.44 -0.75,-0.44 -0.52,0 -15.98,-9.72 -35.46,-22.29 -25.17,-16.2 -43.19,-27.94 -43.19,-28.11 0,-0.11 0.44,-1.01 0.98,-2.01 3.06,-5.67 5.39,-12.83 6.48,-19.89 0.57,-3.75 0.68,-12.13 0.2,-15.82 -1.84,-14.28 -7.86,-26.61 -17.91,-36.64 -11.08,-11.08 -25.28,-17.6 -41.33,-18.98 -2.4,-0.19 -7.49,-0.24 -9.6,-0.08 z m 9.18,12.54 c 9.49,0.91 17.82,3.83 25.39,8.92 20.72,13.91 28.31,39.85 18.24,62.18 -2.53,5.57 -5.83,10.3 -10.48,14.92 -12.32,12.28 -29.75,17.76 -47.13,14.81 -20.46,-3.44 -37.12,-18.38 -42.1,-37.71 -1.18,-4.6 -1.5,-7.26 -1.52,-12.32 0,-4.74 0.21,-6.81 1.11,-10.87 1.87,-8.46 6.32,-16.81 12.41,-23.33 4.71,-5.04 11.52,-9.8 17.84,-12.48 8.27,-3.49 17.65,-4.95 26.24,-4.12 z m 24.45,94.77 c -0.06,0.07 -0.26,0.09 -0.41,0.02 -0.18,-0.06 -0.11,-0.13 0.13,-0.13 0.24,-0.02 0.37,0.04 0.28,0.11 z m -33.09,-78.41 c -3.57,0.37 -8.07,1.63 -11.45,3.22 -10.16,4.76 -17.45,14.01 -19.43,24.69 -0.59,3.15 -0.55,8.75 0.09,11.94 0.87,4.34 2.72,8.7 5.34,12.58 1.64,2.42 5.69,6.52 8.24,8.35 8.34,5.96 19.37,8.21 29.21,5.92 6.79,-1.57 12.28,-4.52 17.1,-9.14 5.04,-4.85 8.31,-10.73 9.75,-17.5 0.66,-2.98 0.7,-9.05 0.13,-12.17 -1.26,-6.83 -4.86,-13.35 -10.03,-18.25 -7.68,-7.27 -18.26,-10.78 -28.95,-9.64 z m 13.16,129.04 c -0.55,0.21 -0.26,0.5 0.48,0.5 0.78,0 1.02,-0.29 0.41,-0.53 -0.39,-0.15 -0.5,-0.15 -0.89,0.03 z"
       id="path72" />
  </g>
</svg>
