<svg width="126" height="35" viewBox="0 0 126 35" fill="none" xmlns="http://www.w3.org/2000/svg">
<path fill-rule="evenodd" clip-rule="evenodd" d="M36.2344 5.6089C36.2497 5.68398 36.2859 5.78592 36.3012 5.861C36.7097 7.71661 36.5883 9.99909 35.8893 12.7031C35.8893 12.7031 35.8837 12.7513 35.8572 12.7726C35.2771 15.075 34.3259 17.6763 32.9773 20.5978C29.3808 28.3883 25.5328 32.9733 21.4542 34.3796C21.0052 34.5228 20.5563 34.666 20.092 34.7341C17.153 35.2225 14.1092 34.135 10.9396 31.4448C9.36241 30.1372 7.76191 28.4115 6.15321 26.3428L5.40107 25.3757C5.15037 25.0533 4.94705 24.7364 4.69634 24.414C3.11571 22.1043 1.9713 19.9675 1.3161 17.961C0.407676 15.2409 0.403806 12.7972 1.25147 10.6726C1.96508 8.87433 3.33099 7.24982 5.29618 5.8417C7.57381 4.22563 10.7085 2.88042 14.6265 1.82189C15.6193 1.54659 16.6594 1.2768 17.7414 1.06075C22.592 0.0375336 26.515 -0.23856 29.4631 0.226944C33.2587 0.840018 35.4754 2.63744 36.2344 5.6089Z" fill="#3F8EFC"/>
<path fill-rule="evenodd" clip-rule="evenodd" d="M21.4908 34.3739C21.0413 34.5172 20.5917 34.6606 20.1269 34.7287C17.1842 35.2177 14.1365 34.129 10.9629 31.4358C9.38378 30.1267 7.78118 28.3991 6.17048 26.3281L5.41744 25.3599C5.16642 25.0371 4.96285 24.7199 4.71184 24.3971C3.12921 22.0848 1.98335 19.9457 1.32733 17.9369C7.01088 20.1397 15.4369 24.8144 21.4908 34.3739Z" fill="white" fill-opacity="0.33"/>
<path fill-rule="evenodd" clip-rule="evenodd" d="M20.1416 34.7557C17.1992 35.2446 14.1519 34.156 10.9786 31.463C9.39968 30.154 7.79728 28.4266 6.18668 26.3558C1.27143 20.0357 -0.332727 14.8106 1.30588 10.6479C8.90658 14.7614 20.567 23.0409 20.1416 34.7557Z" fill="#FFFDFD" fill-opacity="0.33"/>
<path fill-rule="evenodd" clip-rule="evenodd" d="M36.2393 5.62689C36.2546 5.70193 36.2908 5.80382 36.306 5.87886C36.7144 7.73349 36.593 10.0148 35.8944 12.7173C35.8944 12.7173 35.8888 12.7655 35.8623 12.7869C35.2825 15.0881 34.3318 17.6879 32.9837 20.6079C28.9982 29.2768 24.7089 33.9542 20.1047 34.7367C17.1671 35.2249 14.1247 34.138 10.9566 31.4492C9.3803 30.1423 7.7805 28.4175 6.1726 26.3499C5.65051 25.6786 5.19672 25.0397 4.74292 24.4008C10.7699 23.5642 27.0776 19.9933 36.2393 5.62689Z" fill="white" fill-opacity="0.12"/>
<path fill-rule="evenodd" clip-rule="evenodd" d="M29.4899 0.224071C29.6528 0.267464 30.1474 0.349474 30.263 0.387354C15.6089 5.029 8.12508 18.3921 5.42166 25.3288C5.1711 25.0066 4.96792 24.69 4.71737 24.3678C0.958143 18.9247 -0.189447 14.3474 1.2746 10.6357C1.98777 8.83872 3.35284 7.21532 5.31683 5.80815C7.59308 4.19319 10.7259 2.84889 14.6415 1.79108C15.6336 1.51597 16.6732 1.24636 17.7544 1.03046C22.6494 0.0134598 26.5436 -0.241117 29.4899 0.224071Z" fill="white" fill-opacity="0.12"/>
<path fill-rule="evenodd" clip-rule="evenodd" d="M36.3293 5.9158C37.0848 9.32391 35.9864 14.2251 33.0343 20.6193C26.5147 34.7764 19.1583 38.3873 10.9651 31.452C16.3938 29.3499 31.4382 22.1667 36.3293 5.9158Z" fill="#203FD8" fill-opacity="0.25"/>
<path d="M5.34456 5.84247C3.35818 7.22394 2.01858 8.82734 1.27836 10.6472C-0.186795 14.3619 0.961665 18.9431 4.72376 24.3907C4.9271 24.7076 5.17784 25.03 5.42858 25.3525C5.67932 25.6749 5.93006 25.9974 6.18083 26.3198C7.81063 28.4157 9.39053 30.1147 10.9679 31.4225C14.1379 34.1131 17.2296 35.2063 20.1217 34.7123C24.7288 33.9293 29.0473 29.2273 33.0088 20.5739C34.3577 17.652 35.309 15.0503 35.8892 12.7476C22.8662 5.75713 6.28292 5.82957 5.34456 5.84247Z" fill="url(#paint0_linear)"/>
<path fill-rule="evenodd" clip-rule="evenodd" d="M35.8952 12.6991C35.8952 12.6991 35.8896 12.7474 35.8631 12.7687C35.2829 15.0715 34.3316 17.6731 32.9827 20.595C28.9947 29.2697 24.7027 33.9504 20.0955 34.7334C17.1561 35.2219 14.1118 34.1343 10.9418 31.4436C9.3644 30.1358 7.7636 28.4099 6.1547 26.3409L5.40245 25.3736C5.1517 25.0512 4.94836 24.7343 4.69762 24.4118C0.935542 18.9642 -0.212918 14.3831 1.25224 10.6683C1.96595 8.86982 3.33206 7.24507 5.29754 5.83674C7.5755 4.22043 10.7107 2.87502 14.6293 1.81634C15.6222 1.54099 16.6625 1.27117 17.7446 1.05508C19.1488 0.754334 20.5209 0.523154 21.7661 0.350494C20.5209 0.523154 19.1962 0.759854 17.792 1.0606C16.7099 1.27669 15.6696 1.54651 14.6767 1.82186C20.7088 3.03753 29.2117 5.93384 35.8952 12.6991Z" fill="url(#paint1_linear)"/>
<path d="M50.9438 19.0996L53.0679 11.3359H55.939L52.3501 22H49.5376L45.978 11.3359H48.8271L50.9438 19.0996ZM60.5629 22H58.0873V14.0752H60.5629V22ZM57.9408 12.0317C57.9408 11.6802 58.0678 11.3921 58.3217 11.1675C58.5756 10.9429 58.9052 10.8306 59.3104 10.8306C59.7157 10.8306 60.0453 10.9429 60.2992 11.1675C60.5531 11.3921 60.6801 11.6802 60.6801 12.0317C60.6801 12.3833 60.5531 12.6714 60.2992 12.896C60.0453 13.1206 59.7157 13.2329 59.3104 13.2329C58.9052 13.2329 58.5756 13.1206 58.3217 12.896C58.0678 12.6714 57.9408 12.3833 57.9408 12.0317ZM67.2742 22.1465C66.0584 22.1465 65.0745 21.7852 64.3226 21.0625C63.5706 20.335 63.1946 19.3901 63.1946 18.228V18.0229C63.1946 17.2124 63.3436 16.4971 63.6414 15.877C63.9441 15.2568 64.3836 14.7783 64.9598 14.4414C65.5359 14.0996 66.2195 13.9287 67.0105 13.9287C68.1238 13.9287 69.0027 14.2754 69.6473 14.9688C70.2918 15.6572 70.6141 16.6191 70.6141 17.8545V18.814H65.7068C65.7947 19.2583 65.9876 19.6074 66.2854 19.8613C66.5833 20.1152 66.969 20.2422 67.4427 20.2422C68.2239 20.2422 68.8343 19.9688 69.2737 19.4219L70.4017 20.7549C70.094 21.1797 69.657 21.519 69.0906 21.7729C68.5291 22.022 67.9236 22.1465 67.2742 22.1465ZM66.9959 15.833C66.2732 15.833 65.8436 16.3115 65.7068 17.2686H68.1971V17.0781C68.2068 16.6826 68.1067 16.3774 67.8968 16.1626C67.6868 15.9429 67.3865 15.833 66.9959 15.833ZM79.8083 18.748L80.6066 14.0752H82.9724L81.1047 22H79.0173L77.7062 17.2979L76.3879 22H74.3005L72.4328 14.0752H74.7985L75.5822 18.8579L76.842 14.0752H78.5632L79.8083 18.748ZM87.8966 18.3818V22H85.3258V11.3359H89.5812C90.3966 11.3359 91.1168 11.4873 91.7418 11.79C92.3717 12.0879 92.8575 12.5151 93.1993 13.0718C93.546 13.6235 93.7193 14.251 93.7193 14.9541C93.7193 15.9941 93.3458 16.8267 92.5987 17.4517C91.8565 18.0718 90.836 18.3818 89.5372 18.3818H87.8966ZM87.8966 16.397H89.5812C90.0792 16.397 90.4576 16.2725 90.7164 16.0234C90.9801 15.7744 91.1119 15.4229 91.1119 14.9688C91.1119 14.4707 90.9776 14.0728 90.7091 13.7749C90.4405 13.4771 90.0743 13.3257 89.6105 13.3208H87.8966V16.397ZM95.9189 17.9644C95.9189 17.1733 96.0728 16.4702 96.3804 15.855C96.688 15.2349 97.1299 14.7588 97.7061 14.4268C98.2822 14.0947 98.9585 13.9287 99.7349 13.9287C100.921 13.9287 101.856 14.2974 102.54 15.0347C103.224 15.7671 103.565 16.7656 103.565 18.0303V18.1182C103.565 19.3535 103.221 20.335 102.533 21.0625C101.849 21.7852 100.921 22.1465 99.7495 22.1465C98.6216 22.1465 97.7158 21.8096 97.0322 21.1357C96.3486 20.457 95.98 19.5391 95.9263 18.3818L95.9189 17.9644ZM98.3872 18.1182C98.3872 18.8506 98.502 19.3877 98.7314 19.7295C98.9609 20.0713 99.3003 20.2422 99.7495 20.2422C100.628 20.2422 101.078 19.5659 101.097 18.2134V17.9644C101.097 16.5435 100.643 15.833 99.7349 15.833C98.9097 15.833 98.4629 16.4458 98.3945 17.6714L98.3872 18.1182ZM108.607 22H106.131V14.0752H108.607V22ZM105.985 12.0317C105.985 11.6802 106.112 11.3921 106.366 11.1675C106.62 10.9429 106.949 10.8306 107.354 10.8306C107.76 10.8306 108.089 10.9429 108.343 11.1675C108.597 11.3921 108.724 11.6802 108.724 12.0317C108.724 12.3833 108.597 12.6714 108.343 12.896C108.089 13.1206 107.76 13.2329 107.354 13.2329C106.949 13.2329 106.62 13.1206 106.366 12.896C106.112 12.6714 105.985 12.3833 105.985 12.0317ZM113.751 14.0752L113.831 15.0054C114.378 14.2876 115.133 13.9287 116.095 13.9287C116.92 13.9287 117.535 14.1753 117.94 14.6685C118.35 15.1616 118.563 15.9038 118.577 16.895V22H116.102V16.9976C116.102 16.5972 116.021 16.3042 115.86 16.1187C115.699 15.9282 115.406 15.833 114.981 15.833C114.498 15.833 114.139 16.0234 113.905 16.4043V22H111.436V14.0752H113.751ZM124.175 12.105V14.0752H125.479V15.7891H124.175V19.4146C124.175 19.7124 124.229 19.9199 124.337 20.0371C124.444 20.1543 124.656 20.2129 124.974 20.2129C125.218 20.2129 125.423 20.1982 125.589 20.1689V21.9341C125.145 22.0757 124.681 22.1465 124.197 22.1465C123.348 22.1465 122.72 21.9463 122.315 21.5459C121.91 21.1455 121.707 20.5376 121.707 19.7222V15.7891H120.696V14.0752H121.707V12.105H124.175Z" fill="black"/>
<defs>
<linearGradient id="paint0_linear" x1="8.48903" y1="30.1129" x2="23.9997" y2="5.30919" gradientUnits="userSpaceOnUse">
<stop offset="0.21" stop-color="#3F64FC" stop-opacity="0"/>
<stop offset="0.9292" stop-color="#3F64FC" stop-opacity="0.9104"/>
<stop offset="1" stop-color="#3F64FC"/>
</linearGradient>
<linearGradient id="paint1_linear" x1="10.6412" y1="32.29" x2="23.2381" y2="0.937275" gradientUnits="userSpaceOnUse">
<stop offset="0.5801" stop-color="#0042FF" stop-opacity="0"/>
<stop offset="0.8276" stop-color="#0044FF" stop-opacity="0.5895"/>
<stop offset="0.9167" stop-color="#004BFF" stop-opacity="0.8016"/>
<stop offset="0.98" stop-color="#0056FF" stop-opacity="0.9525"/>
<stop offset="1" stop-color="#005CFF"/>
</linearGradient>
</defs>
</svg>
