<svg width="126" height="35" viewBox="0 0 126 35" fill="none" xmlns="http://www.w3.org/2000/svg">
<path fill-rule="evenodd" clip-rule="evenodd" d="M35.6094 5.6089C35.6247 5.68398 35.6609 5.78592 35.6762 5.861C36.0847 7.71661 35.9633 9.99909 35.2643 12.7031C35.2643 12.7031 35.2587 12.7513 35.2322 12.7726C34.6521 15.075 33.7009 17.6763 32.3523 20.5978C28.7558 28.3883 24.9078 32.9733 20.8292 34.3796C20.3802 34.5228 19.9313 34.666 19.467 34.7341C16.528 35.2225 13.4842 34.135 10.3146 31.4448C8.73741 30.1372 7.13691 28.4115 5.52821 26.3428L4.77607 25.3757C4.52537 25.0533 4.32205 24.7364 4.07134 24.414C2.49071 22.1043 1.3463 19.9675 0.691096 17.961C-0.217324 15.2409 -0.221194 12.7972 0.626466 10.6726C1.34008 8.87433 2.70599 7.24982 4.67118 5.8417C6.94881 4.22563 10.0835 2.88042 14.0015 1.82189C14.9943 1.54659 16.0344 1.2768 17.1164 1.06075C21.967 0.0375336 25.89 -0.23856 28.8381 0.226944C32.6337 0.840018 34.8504 2.63744 35.6094 5.6089Z" fill="#3F8EFC"/>
<path fill-rule="evenodd" clip-rule="evenodd" d="M20.8658 34.3739C20.4163 34.5172 19.9667 34.6606 19.5019 34.7287C16.5592 35.2177 13.5115 34.129 10.3379 31.4358C8.75878 30.1267 7.15618 28.3991 5.54548 26.3281L4.79244 25.3599C4.54142 25.0371 4.33785 24.7199 4.08684 24.3971C2.50421 22.0848 1.35835 19.9457 0.702332 17.9369C6.38588 20.1397 14.8119 24.8144 20.8658 34.3739Z" fill="white" fill-opacity="0.33"/>
<path fill-rule="evenodd" clip-rule="evenodd" d="M19.5166 34.7557C16.5742 35.2446 13.5269 34.156 10.3536 31.463C8.77468 30.154 7.17228 28.4266 5.56168 26.3558C0.646433 20.0357 -0.957727 14.8106 0.680883 10.6479C8.28158 14.7614 19.942 23.0409 19.5166 34.7557Z" fill="#FFFDFD" fill-opacity="0.33"/>
<path fill-rule="evenodd" clip-rule="evenodd" d="M35.6143 5.62689C35.6296 5.70193 35.6658 5.80382 35.681 5.87886C36.0894 7.73349 35.968 10.0148 35.2694 12.7173C35.2694 12.7173 35.2638 12.7655 35.2373 12.7869C34.6575 15.0881 33.7068 17.6879 32.3587 20.6079C28.3732 29.2768 24.0839 33.9542 19.4797 34.7367C16.5421 35.2249 13.4997 34.138 10.3316 31.4492C8.7553 30.1423 7.1555 28.4175 5.5476 26.3499C5.02551 25.6786 4.57172 25.0397 4.11792 24.4008C10.1449 23.5642 26.4526 19.9933 35.6143 5.62689Z" fill="white" fill-opacity="0.12"/>
<path fill-rule="evenodd" clip-rule="evenodd" d="M28.8649 0.224071C29.0278 0.267464 29.5224 0.349474 29.638 0.387354C14.9839 5.029 7.50008 18.3921 4.79666 25.3288C4.5461 25.0066 4.34292 24.69 4.09237 24.3678C0.333143 18.9247 -0.814447 14.3474 0.649603 10.6357C1.36277 8.83872 2.72784 7.21532 4.69183 5.80815C6.96808 4.19319 10.1009 2.84889 14.0165 1.79108C15.0086 1.51597 16.0482 1.24636 17.1294 1.03046C22.0244 0.0134598 25.9186 -0.241117 28.8649 0.224071Z" fill="white" fill-opacity="0.12"/>
<path fill-rule="evenodd" clip-rule="evenodd" d="M35.7043 5.9158C36.4598 9.32391 35.3614 14.2251 32.4093 20.6193C25.8897 34.7764 18.5333 38.3873 10.3401 31.452C15.7688 29.3499 30.8132 22.1667 35.7043 5.9158Z" fill="#203FD8" fill-opacity="0.25"/>
<path d="M4.71956 5.84247C2.73318 7.22394 1.39358 8.82734 0.653365 10.6472C-0.811795 14.3619 0.336665 18.9431 4.09876 24.3907C4.3021 24.7076 4.55284 25.03 4.80358 25.3525C5.05432 25.6749 5.30506 25.9974 5.55583 26.3198C7.18563 28.4157 8.76553 30.1147 10.3429 31.4225C13.5129 34.1131 16.6046 35.2063 19.4967 34.7123C24.1038 33.9293 28.4223 29.2273 32.3838 20.5739C33.7327 17.652 34.684 15.0503 35.2642 12.7476C22.2412 5.75713 5.65792 5.82957 4.71956 5.84247Z" fill="url(#paint0_linear)"/>
<path fill-rule="evenodd" clip-rule="evenodd" d="M35.2702 12.6991C35.2702 12.6991 35.2646 12.7474 35.2381 12.7687C34.6579 15.0715 33.7066 17.6731 32.3577 20.595C28.3697 29.2697 24.0777 33.9504 19.4705 34.7334C16.5311 35.2219 13.4868 34.1343 10.3168 31.4436C8.7394 30.1358 7.1386 28.4099 5.5297 26.3409L4.77745 25.3736C4.5267 25.0512 4.32336 24.7343 4.07262 24.4118C0.310542 18.9642 -0.837918 14.3831 0.627242 10.6683C1.34095 8.86982 2.70706 7.24507 4.67254 5.83674C6.9505 4.22043 10.0857 2.87502 14.0043 1.81634C14.9972 1.54099 16.0375 1.27117 17.1196 1.05508C18.5238 0.754334 19.8959 0.523154 21.1411 0.350494C19.8959 0.523154 18.5712 0.759854 17.167 1.0606C16.0849 1.27669 15.0446 1.54651 14.0517 1.82186C20.0838 3.03753 28.5867 5.93384 35.2702 12.6991Z" fill="url(#paint1_linear)"/>
<path d="M50.3188 19.0996L52.4429 11.3359H55.314L51.7251 22H48.9126L45.353 11.3359H48.2021L50.3188 19.0996ZM59.9379 22H57.4623V14.0752H59.9379V22ZM57.3158 12.0317C57.3158 11.6802 57.4428 11.3921 57.6967 11.1675C57.9506 10.9429 58.2802 10.8306 58.6854 10.8306C59.0907 10.8306 59.4203 10.9429 59.6742 11.1675C59.9281 11.3921 60.0551 11.6802 60.0551 12.0317C60.0551 12.3833 59.9281 12.6714 59.6742 12.896C59.4203 13.1206 59.0907 13.2329 58.6854 13.2329C58.2802 13.2329 57.9506 13.1206 57.6967 12.896C57.4428 12.6714 57.3158 12.3833 57.3158 12.0317ZM66.6492 22.1465C65.4334 22.1465 64.4495 21.7852 63.6976 21.0625C62.9456 20.335 62.5696 19.3901 62.5696 18.228V18.0229C62.5696 17.2124 62.7186 16.4971 63.0164 15.877C63.3191 15.2568 63.7586 14.7783 64.3348 14.4414C64.9109 14.0996 65.5945 13.9287 66.3855 13.9287C67.4988 13.9287 68.3777 14.2754 69.0223 14.9688C69.6668 15.6572 69.9891 16.6191 69.9891 17.8545V18.814H65.0818C65.1697 19.2583 65.3626 19.6074 65.6604 19.8613C65.9583 20.1152 66.344 20.2422 66.8177 20.2422C67.5989 20.2422 68.2093 19.9688 68.6487 19.4219L69.7767 20.7549C69.469 21.1797 69.032 21.519 68.4656 21.7729C67.9041 22.022 67.2986 22.1465 66.6492 22.1465ZM66.3709 15.833C65.6482 15.833 65.2186 16.3115 65.0818 17.2686H67.5721V17.0781C67.5818 16.6826 67.4817 16.3774 67.2718 16.1626C67.0618 15.9429 66.7615 15.833 66.3709 15.833ZM79.1833 18.748L79.9816 14.0752H82.3474L80.4797 22H78.3923L77.0812 17.2979L75.7629 22H73.6755L71.8078 14.0752H74.1735L74.9572 18.8579L76.217 14.0752H77.9382L79.1833 18.748ZM87.2716 18.3818V22H84.7008V11.3359H88.9562C89.7716 11.3359 90.4918 11.4873 91.1168 11.79C91.7467 12.0879 92.2325 12.5151 92.5743 13.0718C92.921 13.6235 93.0943 14.251 93.0943 14.9541C93.0943 15.9941 92.7208 16.8267 91.9737 17.4517C91.2315 18.0718 90.211 18.3818 88.9122 18.3818H87.2716ZM87.2716 16.397H88.9562C89.4542 16.397 89.8326 16.2725 90.0914 16.0234C90.3551 15.7744 90.4869 15.4229 90.4869 14.9688C90.4869 14.4707 90.3526 14.0728 90.0841 13.7749C89.8155 13.4771 89.4493 13.3257 88.9855 13.3208H87.2716V16.397ZM95.2939 17.9644C95.2939 17.1733 95.4478 16.4702 95.7554 15.855C96.063 15.2349 96.5049 14.7588 97.0811 14.4268C97.6572 14.0947 98.3335 13.9287 99.1099 13.9287C100.296 13.9287 101.231 14.2974 101.915 15.0347C102.599 15.7671 102.94 16.7656 102.94 18.0303V18.1182C102.94 19.3535 102.596 20.335 101.908 21.0625C101.224 21.7852 100.296 22.1465 99.1245 22.1465C97.9966 22.1465 97.0908 21.8096 96.4072 21.1357C95.7236 20.457 95.355 19.5391 95.3013 18.3818L95.2939 17.9644ZM97.7622 18.1182C97.7622 18.8506 97.877 19.3877 98.1064 19.7295C98.3359 20.0713 98.6753 20.2422 99.1245 20.2422C100.003 20.2422 100.453 19.5659 100.472 18.2134V17.9644C100.472 16.5435 100.018 15.833 99.1099 15.833C98.2847 15.833 97.8379 16.4458 97.7695 17.6714L97.7622 18.1182ZM107.982 22H105.506V14.0752H107.982V22ZM105.36 12.0317C105.36 11.6802 105.487 11.3921 105.741 11.1675C105.995 10.9429 106.324 10.8306 106.729 10.8306C107.135 10.8306 107.464 10.9429 107.718 11.1675C107.972 11.3921 108.099 11.6802 108.099 12.0317C108.099 12.3833 107.972 12.6714 107.718 12.896C107.464 13.1206 107.135 13.2329 106.729 13.2329C106.324 13.2329 105.995 13.1206 105.741 12.896C105.487 12.6714 105.36 12.3833 105.36 12.0317ZM113.126 14.0752L113.206 15.0054C113.753 14.2876 114.508 13.9287 115.47 13.9287C116.295 13.9287 116.91 14.1753 117.315 14.6685C117.725 15.1616 117.938 15.9038 117.952 16.895V22H115.477V16.9976C115.477 16.5972 115.396 16.3042 115.235 16.1187C115.074 15.9282 114.781 15.833 114.356 15.833C113.873 15.833 113.514 16.0234 113.28 16.4043V22H110.811V14.0752H113.126ZM123.55 12.105V14.0752H124.854V15.7891H123.55V19.4146C123.55 19.7124 123.604 19.9199 123.712 20.0371C123.819 20.1543 124.031 20.2129 124.349 20.2129C124.593 20.2129 124.798 20.1982 124.964 20.1689V21.9341C124.52 22.0757 124.056 22.1465 123.572 22.1465C122.723 22.1465 122.095 21.9463 121.69 21.5459C121.285 21.1455 121.082 20.5376 121.082 19.7222V15.7891H120.071V14.0752H121.082V12.105H123.55Z" fill="white"/>
<defs>
<linearGradient id="paint0_linear" x1="7.86403" y1="30.1129" x2="23.3747" y2="5.30919" gradientUnits="userSpaceOnUse">
<stop offset="0.21" stop-color="#3F64FC" stop-opacity="0"/>
<stop offset="0.9292" stop-color="#3F64FC" stop-opacity="0.9104"/>
<stop offset="1" stop-color="#3F64FC"/>
</linearGradient>
<linearGradient id="paint1_linear" x1="10.0162" y1="32.29" x2="22.6131" y2="0.937275" gradientUnits="userSpaceOnUse">
<stop offset="0.5801" stop-color="#0042FF" stop-opacity="0"/>
<stop offset="0.8276" stop-color="#0044FF" stop-opacity="0.5895"/>
<stop offset="0.9167" stop-color="#004BFF" stop-opacity="0.8016"/>
<stop offset="0.98" stop-color="#0056FF" stop-opacity="0.9525"/>
<stop offset="1" stop-color="#005CFF"/>
</linearGradient>
</defs>
</svg>
